Coordinates
version=1
nRows=16
nColumns=33
inDegrees=yes

Units are S.I. units (second, meters, Newtons, ...)
Angles are in degrees.

endheader
time	ground_thorax_rot_x	ground_thorax_rot_y	ground_thorax_rot_z	ground_thorax_tx	ground_thorax_ty	ground_thorax_tz	clav_prot_r	clav_elev_r	scapula_abduction_r	scapula_elevation_r	scapula_upward_rot_r	scapula_winging_r	shoulder_elv_r	plane_of_elev_r	axial_rot_r	elbow_flexion_r	pro_sup_r	wrist_flex_r	wrist_dev_r	clav_prot_l	clav_elev_l	scapula_abduction_l	scapula_elevation_l	scapula_upward_rot_l	scapula_winging_l	shoulder_elv_l	plane_of_elev_l	axial_rot_l	elbow_flexion_l	pro_sup_l	wrist_flex_l	wrist_dev_l
      8.42000000	    -38.62602577	     -8.93475545	     15.16371412	   -245.34895602	    847.27257885	      5.22409039	      6.81247831	    -45.00000000	     37.55143737	    -45.00000000	    -36.57028059	   3136.54161243	  -1727.33243396	     33.88362427	     62.52567406	   1100.64930499	     99.88514473	     12.84208139	      1.40698832	     13.75582542	     36.94711462	    -36.21775851	    -45.00000000	    -45.00000000	  -1354.38973318	   2593.94644172	     22.70043715	    -42.77107361	   2181.96710535	    126.12153477	     -0.98322689	    -10.71392829
      8.43000000	    -38.78339123	     -8.53698942	     14.84156701	   -244.18206919	    846.97641657	      5.13791000	      6.59715613	    -45.00000000	     37.18604921	    -45.00000000	    -36.15475307	   3136.77707447	  -1727.39465362	     33.95293360	     62.37856031	   1100.53704922	     99.84260298	     12.89749092	      1.39523811	     14.22893043	     37.11855657	    -36.64897352	    -45.00000000	    -45.00000000	  -1354.16845758	   2593.77505527	     23.13657285	    -42.75405005	   2181.96943624	    127.06951881	     -1.04008284	    -10.74091280
      8.44000000	    -38.79340012	     -8.50205676	     14.78488320	   -242.92226048	    846.64178318	      5.05379839	      6.40439598	    -45.00000000	     37.17591413	    -45.00000000	    -35.81534297	   3136.91733128	  -1727.35791225	     33.90878928	     62.28441185	   1100.54703537	     99.66398879	     12.97981768	      1.33993679	     14.50504498	     37.20778835	    -36.84302463	    -45.00000000	    -45.00000000	  -1354.06202632	   2593.62762082	     23.39296609	    -42.59836437	   2182.01833143	    128.23700772	     -1.03916091	    -10.68358492
      8.45000000	    -38.80716372	     -8.54554954	     14.76314273	   -241.56845330	    846.26646701	      4.97252753	      6.44822721	    -45.00000000	     37.25351670	    -45.00000000	    -35.50024352	   3136.98532032	  -1727.43702299	     33.91688132	     62.14431106	   1100.54219256	     99.38033422	     13.07468987	      1.28850052	     14.50479374	     37.19524829	    -36.95347406	    -45.00000000	    -45.00000000	  -1354.10101797	   2593.63019366	     23.48587669	    -42.39700459	   2182.07861692	    129.44458790	     -1.06211955	    -10.63529913
      8.46000000	    -38.76820401	     -8.61695399	     14.77726017	   -240.11872120	    845.84743880	      4.89459456	      6.50889278	    -45.00000000	     37.35127461	    -45.00000000	    -35.16718577	   3137.01137839	  -1727.42823191	     33.98451031	     61.97156982	   1100.47452956	     99.00220817	     13.17153521	      1.24697144	     14.44492442	     37.15985378	    -37.04581797	    -45.00000000	    -45.00000000	  -1354.22333504	   2593.66053349	     23.52794198	    -42.17181151	   2182.17935308	    130.67264703	     -1.10388956	    -10.58558054
      8.47000000	    -38.78283947	     -8.66639871	     14.76008381	   -238.57663781	    845.38185257	      4.82086602	      6.48683921	    -45.00000000	     37.40487420	    -45.00000000	    -34.81775483	   3137.10458657	  -1727.49247556	     34.00597019	     61.75807907	   1100.42424215	     98.51009511	     13.30311972	      1.19278175	     14.50929381	     37.16451328	    -37.16897451	    -45.00000000	    -45.00000000	  -1354.27153085	   2593.63931024	     23.62913771	    -41.98365178	   2182.24054078	    131.94768106	     -1.13622182	    -10.53663914
      8.48000000	    -38.78511812	     -8.75986955	     14.79961403	   -236.94044248	    844.86380931	      4.75168674	      6.11757392	    -45.00000000	     37.47304268	    -45.00000000	    -34.35594768	   3137.26893272	  -1727.42947736	     33.85183518	     61.51692037	   1100.50012479	     97.76320574	     13.48520426	      1.08854716	     14.91565015	     37.37987138	    -37.45555555	    -45.00000000	    -45.00000000	  -1354.20748305	   2593.47909861	     23.67115189	    -41.85562045	   2182.33563723	    133.47169283	     -1.15565847	    -10.45723189
      8.49000000	    -38.77211078	     -8.84533375	     14.82683679	   -235.20861970	    844.28675548	      4.68750359	      5.95625607	    -45.00000000	     37.57491108	    -45.00000000	    -33.91140841	   3137.39273389	  -1727.40900202	     33.80687856	     61.26773713	   1100.45111546	     96.77907757	     13.69911022	      1.01134590	     15.09368289	     37.47617200	    -37.61510410	    -45.00000000	    -45.00000000	  -1354.29296840	   2593.46559281	     23.70762831	    -41.73006101	   2182.43745761	    135.11902774	     -1.18260256	    -10.37643032
      8.50000000	    -38.76807409	     -8.90780319	     14.84598516	   -233.37970671	    843.64356013	      4.62832846	      5.83470272	    -45.00000000	     37.61684525	    -45.00000000	    -33.45045075	   3137.50820639	  -1727.44736895	     33.78336269	     60.97070896	   1100.32306638	     95.52357359	     13.94617713	      0.95248900	     15.23638050	     37.53335613	    -37.77838883	    -45.00000000	    -45.00000000	  -1354.39260531	   2593.42914648	     23.75045675	    -41.62066350	   2182.51220475	    136.83789921	     -1.20283457	    -10.29545689
      8.51000000	    -38.76480639	     -8.99616031	     14.88277738	   -231.45346687	    842.92830882	      4.57428005	      5.76865153	    -45.00000000	     37.69123823	    -45.00000000	    -32.99580319	   3137.61858171	  -1727.49925975	     33.79386025	     60.60648674	   1100.16640107	     93.96833760	     14.23780550	      0.90417776	     15.31813759	     37.55965218	    -37.94489203	    -45.00000000	    -45.00000000	  -1354.51314943	   2593.40495933	     23.78094516	    -41.49742931	   2182.59137322	    138.55987558	     -1.23057648	    -10.21663544
      8.52000000	    -38.75393964	     -9.10609271	     14.88682793	   -229.42156756	    842.13252581	      4.52436100	      5.97311026	    -45.00000000	     37.85386053	    -45.00000000	    -32.64058571	   3137.67653666	  -1727.59374354	     33.88453610	     60.21306477	   1100.02142264	     92.32686784	     14.50465736	      0.87047882	     15.18289323	     37.47124617	    -37.98878141	    -45.00000000	    -45.00000000	  -1354.57302714	   2593.37670745	     23.96477366	    -41.29908066	   2182.65450181	    140.03793339	     -1.27369089	    -10.16795420
      8.53000000	    -38.73227448	     -9.20945852	     14.98783642	   -227.27984826	    841.24950390	      4.47821590	      5.55879605	    -45.00000000	     37.83873956	    -45.00000000	    -32.00949616	   3137.85968605	  -1727.56261235	     33.77901592	     59.78952353	   1099.77877438	     89.89056594	     14.96136575	      0.86096389	     15.55517257	     37.65449461	    -38.25089063	    -45.00000000	    -45.00000000	  -1354.73379611	   2593.32333619	     23.86341323	    -41.22217949	   2182.73972598	    141.72434689	     -1.29330823	    -10.06120839
      8.54000000	    -38.73765576	     -9.30701542	     15.01202024	   -225.01420602	    840.26765777	      4.43027019	      5.64582899	    -45.00000000	     37.96132326	    -45.00000000	    -31.57462888	   3137.97317083	  -1727.68826597	     33.81448559	     59.19927904	   1099.50870530	     87.21191247	     15.40159468	      0.89179914	     15.55818766	     37.63784946	    -38.37749672	    -45.00000000	    -45.00000000	  -1354.78409716	   2593.21916605	     24.02132877	    -41.07522871	   2182.76410397	    143.20380057	     -1.32870708	    -10.00694367
      8.55000000	    -38.68189333	     -9.36002314	     15.00625103	   -222.63006597	    839.18734145	      4.38249896	      5.74210383	    -45.00000000	     38.09409250	    -45.00000000	    -31.10949443	   3138.06916622	  -1727.81408157	     33.90694640	     58.66299018	   1099.11095858	     84.25885035	     15.84471524	      0.98832602	     15.52345239	     37.59276655	    -38.51175817	    -45.00000000	    -45.00000000	  -1354.87020435	   2593.08827760	     24.21056971	    -40.93271453	   2182.84540108	    144.50794265	     -1.39980748	     -9.96602117
      8.56000000	    -38.68033933	     -9.35079549	     15.06865552	   -220.14484414	    838.01279155	      4.33847500	      5.52552182	    -45.00000000	     38.22702855	    -45.00000000	    -29.74810940	   3138.12648429	  -1728.42666483	     33.13079338	     60.98898326	   1092.55869498	     15.04077226	     19.63063034	      6.76009688	     15.65067527	     37.64731462	    -38.65084564	    -45.00000000	    -45.00000000	  -1355.34719842	   2593.14116241	     23.43409661	    -43.97720469	   2182.90559470	    164.88691623	     -0.63854038	     -8.78348143
      8.57000000	    -38.63205362	     -9.62391400	     15.29733947	   -217.58254925	    836.76192985	      4.30702934	      5.53739508	    -45.00000000	     38.20582350	    -45.00000000	    -30.03492951	   3138.34621662	  -1728.52263815	     33.24477093	     60.13683506	   1092.46551596	     14.58741800	     19.75085282	      7.10092158	     15.70948502	     37.67847664	    -38.81060818	    -45.00000000	    -45.00000000	  -1355.23941895	   2592.83888373	     23.68980907	    -43.83959225	   2182.85032961	    163.90431655	     -0.60423308	     -8.79941964
